<?xml version="1.0" encoding="utf-8"?>
<!-- Generator: Adobe Illustrator 24.0.0, SVG Export Plug-In . SVG Version: 6.00 Build 0)  -->
<svg version="1.1" id="Layer_1" xmlns="http://www.w3.org/2000/svg" xmlns:xlink="http://www.w3.org/1999/xlink" x="0px" y="0px"
	 viewBox="0 0 1508.2 386.6" style="enable-background:new 0 0 1508.2 386.6;" xml:space="preserve">
<style type="text/css">
	.st0{fill:#FFFFFF;}
	.st1{clip-path:url(#SVGID_2_);}
	.st2{clip-path:url(#SVGID_4_);}
</style>
<path class="st0" d="M686.8,315.7h-44.5c-19.4-23.3-38.6-47.5-58.1-71.4s-39-47.8-58.4-71.5c-2.9,0.6-2.7,2.5-2.7,4.1
	c-0.1,2.7-0.1,5.4-0.1,8.1c-0.2,29.6-0.4,59.1-0.5,88.7c0,10.4,0.2,20.8,0.3,31.2c0,3.3-0.1,6.6-0.2,10.3c-9.1,2.4-17.8,1-26.4,1.1
	s-17.4,0.4-26.6-0.2c-0.3-3.2-0.7-5.8-0.7-8.3c0-69.2,0-138.4,0-207.6c0-5.4-0.1-10.7,0-16.1c0.1-1.4,0.4-2.8,0.8-4.2
	c15.3-0.9,30.4-0.1,45.8-0.6c14,15,25.9,31.6,39,47.3s26,31.7,38.9,47.6s25.9,31.7,38.7,47.4c3.9-1.3,2.6-4,2.6-6.1
	c0-28.9,0-57.8-0.1-86.7c0-13.1-0.1-26.2,0-39.3c0-3,0.3-5.9,0.5-9.3c6-1.5,11.7-0.7,17.3-0.9s11.4-0.2,17.1-0.1s11.3-0.8,16.7,0.6
	c2.1,3.5,1.5,6.9,1.5,10.2c0,13.8-0.1,27.5-0.1,41.3c0.1,57.1,0.2,114.2,0.3,171.3C688,306.6,688.6,310.7,686.8,315.7z"/>
<path class="st0" d="M985.5,196.5c0,36.4-12.3,67.5-40,91.9c-19.8,17.5-43.1,26.6-69,30.3c-20,2.8-39.6,1-58.8-4.2
	c-24-6.5-44-19.6-60.4-38.2c-13.2-15-21-32.8-25.2-52c-5.4-24.1-3.5-49.2,5.4-72.3c6.1-15.7,15.7-29.9,28-41.4
	c23.7-22.6,52.4-33.1,84.7-35c31.6-1.8,60.7,6,86.5,24.3c30.5,21.5,46.2,51.5,48.8,88.5C985.7,191.1,985.5,193.8,985.5,196.5z
	 M932.1,198.3c-1-7-1.5-14.1-3.2-20.8c-6.3-24.9-21.6-42.1-45.7-51c-12.7-4.6-26.4-5.7-39.7-3.2c-24.6,4.3-42.6,18.1-52.9,40.5
	c-7.8,16.6-9.5,35.4-4.8,53.2c5.7,22,17.8,39.2,38.5,49s42.2,9.8,63.6,1.4C912.4,257.8,932.7,228.4,932.1,198.3z"/>
<path class="st0" d="M1506.8,315.3c-8.5,1.3-41.5,1.4-51.3,0.1c-2.6-2.4-1.7-5.6-1.7-8.5c0-25.9,0.1-51.7,0.2-77.6
	c0-3.6,0.6-7.3-1-11.4c-11.7-1.1-23.3-0.3-35-0.3s-23.5,0.1-35.3,0.1s-23.4-0.3-34.4-0.1c-3,2.9-2.4,5.7-2.4,8.3
	c0,26.9,0.1,53.7,0.2,80.6c0,2.9-0.3,5.9-0.5,9.3c-6.1,1.2-11.8,0.5-17.4,0.6c-6.1,0.1-12.1,0.1-18.2,0c-5.6-0.1-11.3,0.4-17.2-0.8
	c-0.3-2.8-0.6-5.1-0.7-7.3c-1.3-57.4-0.7-217,0.8-227.5c7-1.7,40.2-2,52-0.5c2.1,2.6,1.3,5.7,1.3,8.6c0,23.8-0.1,47.7-0.1,71.5
	c0,3.3-0.8,6.7,1.2,9.9c0.8,0.5,1.7,0.8,2.7,1c32.9,0.1,65.9,0.1,98.8,0.1c1.5-0.2,3-0.5,4.4-1c1.3-10.1,0.4-20.1,0.6-30.1
	c0.2-9.7,0.1-19.5,0.1-29.2c0-10,0-20.1,0-30.6c6.3-2.1,12.3-0.8,18.2-1.1c5.7-0.2,11.4-0.1,17.1,0c6,0.1,12-0.6,18.2,0.3
	c0.4,1.8,0.7,3.5,0.8,5.3c-0.1,75.9-0.2,151.8-0.3,227.7C1507.9,313.6,1507.2,314.5,1506.8,315.3z"/>
<path class="st0" d="M1126.3,134.3c-14.3,31.8-26.9,61.8-39.6,91.7s-25.9,59.6-38.8,89c-8.2,1.6-44.4,1.6-55.3,0.1
	c0.4-1.8,0.9-3.7,1.6-5.4c13.1-29.1,26.2-58.1,39.3-87.1c14.6-32,29.2-64.1,43.9-96.1c6.3-13.7,12.5-27.5,18.7-41.2
	c0.8-1.8,1.8-3.5,2.9-5.7c18.2-0.3,36.2-0.1,54.8-0.2c10,19.3,18.1,39.1,27.3,58.4c9.4,19.7,18.1,39.6,27.2,59.5
	c8.9,19.5,17.8,39.1,26.7,58.6c8.9,19.4,18.4,38.6,26.1,58.2c-0.2,0.5-0.5,1-0.8,1.4c-0.2,0.2-0.6,0.4-0.9,0.4
	c-12.4,0.2-24.8,0.4-37.2,0.5c-5.3,0-10.7-0.1-16.1-0.2c-1.3-2.1-2.5-4.2-3.6-6.4c-9.7-22.1-19.3-44.3-28.9-66.4
	c-14-32.3-27.9-64.7-41.8-97C1130.5,142.9,1128.8,139.7,1126.3,134.3z"/>
<g>
	<defs>
		<path id="SVGID_1_" d="M75.2,5h236.3c38.8,0,70.2,31.4,70.2,70.2v236.3c0,38.8-31.4,70.2-70.2,70.2H75.2
			C36.4,381.6,5,350.2,5,311.4V75.2C5,36.4,36.4,5,75.2,5z"/>
	</defs>
	<clipPath id="SVGID_2_">
		<use xlink:href="#SVGID_1_"  style="overflow:visible;"/>
	</clipPath>
	<g class="st1">
		<g>
			<defs>
				<rect id="SVGID_3_" y="0" width="386.6" height="386.6"/>
			</defs>
			<clipPath id="SVGID_4_">
				<use xlink:href="#SVGID_3_"  style="overflow:visible;"/>
			</clipPath>
			<g class="st2">
				
					<image style="overflow:visible;enable-background:new    ;" width="807" height="807" xlink:href="67901951.png"  transform="matrix(0.48 0 0 0.48 -0.43 -0.4101)">
				</image>
			</g>
		</g>
	</g>
</g>
<path class="st0" d="M192.7,135.9c-12.9,28.8-24.3,55.8-35.8,82.9s-23.4,53.9-35,80.5c-7.4,1.4-40.1,1.5-50,0.1
	c0.4-1.7,0.8-3.3,1.4-4.9c11.8-26.3,23.7-52.5,35.6-78.7c13.2-29,26.4-57.9,39.7-86.9c5.7-12.4,11.3-24.9,16.9-37.3
	c0.7-1.6,1.6-3.2,2.6-5.2c16.4-0.2,32.8-0.1,49.5-0.2c9,17.4,16.4,35.3,24.7,52.8c8.5,17.8,16.4,35.8,24.5,53.8
	c8,17.7,16.1,35.3,24.1,52.9c8.1,17.6,16.7,34.9,23.6,52.6c-0.2,0.5-0.4,0.9-0.7,1.3c-0.2,0.2-0.5,0.3-0.8,0.4
	c-11.2,0.2-22.4,0.4-33.6,0.4c-4.8,0-9.6-0.1-14.6-0.2c-1.2-1.9-2.3-3.8-3.3-5.8c-8.7-20-17.4-40-26.1-60
	c-12.6-29.2-25.2-58.5-37.8-87.7C196.5,143.7,195,140.7,192.7,135.9z"/>
</svg>
